<svg width="32" height="32" viewBox="0 0 32 32" fill="none" xmlns="http://www.w3.org/2000/svg"><g fill="none" stroke="#fff" stroke-linecap="round" stroke-linejoin="round" stroke-width="2"><rect width="32" height="32" rx="9" fill="#c95336" stroke="none"/><path d="M17 10C17 6 14 4 9 4C5 4 2 6 2 10H5L6 9L7 10H13M17 9C18 8 20 7 22 8C26 8 29 10 29 14H25L24 13L22 14H18"/><path d="M7 12C4 15 4 20 7 22L13 17L13 16L14 15L17 12C15 9 10 10 7 12Z"/><path d="M14 20C15 24 14 26 13 29H18C21 22 18 13 17 10"/></g></svg>